<?xml version="1.0" standalone="no"?>
<!DOCTYPE svg PUBLIC "-//W3C//DTD SVG 20010904//EN"
 "http://www.w3.org/TR/2001/REC-SVG-20010904/DTD/svg10.dtd">
<svg version="1.0" xmlns="http://www.w3.org/2000/svg"
 width="260.000000pt" height="260.000000pt" viewBox="0 0 260.000000 260.000000"
 preserveAspectRatio="xMidYMid meet">
<metadata>
Created by potrace 1.11, written by Peter Selinger 2001-2013
</metadata>
<g transform="translate(0.000000,260.000000) scale(0.100000,-0.100000)"
fill="#000000" stroke="none">
<path d="M1206 2569 c-62 -15 -153 -68 -197 -116 -201 -218 -103 -563 183
-648 201 -59 421 65 482 274 82 281 -182 557 -468 490z"/>
<path d="M734 1769 c-9 -16 547 -1740 564 -1746 7 -3 17 -2 22 3 15 15 552
1725 546 1740 -5 12 -97 14 -565 14 -396 0 -562 -3 -567 -11z"/>
</g>
</svg>
